<?xml version="1.0" encoding="utf-8"?>
<!-- Generator: Adobe Illustrator 16.0.0, SVG Export Plug-In . SVG Version: 6.00 Build 0)  -->
<!DOCTYPE svg PUBLIC "-//W3C//DTD SVG 1.1//EN" "http://www.w3.org/Graphics/SVG/1.1/DTD/svg11.dtd">
<svg version="1.1" id="Layer_1" xmlns="http://www.w3.org/2000/svg" xmlns:xlink="http://www.w3.org/1999/xlink" x="0px" y="0px"
	 width="56.503px" height="69.304px" viewBox="0 0 56.503 69.304" enable-background="new 0 0 56.503 69.304" xml:space="preserve">
<g>
	<path fill="#C0372C" d="M20.001,4.9c-5.1,3.2-11.3,9.601-11.3,20.001c0,9.601,5.2,17.601,15.701,19.201V14.701
		c0-10.4,5.7-14.601,12.301-14.601c9.5,0,19.801,9.101,19.801,23.901c0,16.601-11.801,25.301-24.001,26.501v18.801h-8.101V50.503
		C12.401,49.603,0,42.103,0,25.102C0,11.201,10,2.8,16.601,0L20.001,4.9z M32.502,44.103c9.5-1.3,15.601-8.701,15.601-19.901
		c0-9.9-5.8-17.701-11.401-17.701c-2.5,0-4.2,2.2-4.2,6.8V44.103z"/>
</g>
</svg>
