<?xml version="1.0" encoding="utf-8"?>
<!-- Generator: Adobe Illustrator 16.0.0, SVG Export Plug-In . SVG Version: 6.00 Build 0)  -->
<!DOCTYPE svg PUBLIC "-//W3C//DTD SVG 1.1//EN" "http://www.w3.org/Graphics/SVG/1.1/DTD/svg11.dtd">
<svg version="1.1" id="Layer_1" xmlns="http://www.w3.org/2000/svg" xmlns:xlink="http://www.w3.org/1999/xlink" x="0px" y="0px"
	 width="106.419px" height="79.596px" viewBox="-3.39 16.137 106.419 79.596" enable-background="new -3.39 16.137 106.419 79.596"
	 xml:space="preserve">
<path fill="#FFFFFF" d="M93.602,16.192c-5.76-0.591-10.927,3.616-11.517,9.375c-0.322,3.15,0.795,6.116,2.812,8.261l-17.48,25.714
	c-1.336-0.854-2.883-1.427-4.567-1.601c-2.043-0.206-4.006,0.194-5.725,1.047L46.442,49.52c1.005-1.424,1.674-3.113,1.864-4.965
	c0.59-5.762-3.616-10.927-9.374-11.519c-5.76-0.59-10.926,3.616-11.517,9.376c-0.282,2.77,0.551,5.396,2.126,7.447L9.788,75.092
	c-0.521-0.139-1.056-0.249-1.606-0.305c-5.758-0.591-10.924,3.611-11.516,9.374c-0.59,5.757,3.616,10.925,9.376,11.516
	c5.759,0.591,10.926-3.617,11.516-9.375c0.275-2.682-0.501-5.23-1.979-7.253l19.857-25.363c0.441,0.105,0.892,0.191,1.356,0.239
	c1.291,0.134,2.546,0.015,3.732-0.3l11.721,10.387c-0.468,1.019-0.788,2.124-0.907,3.301c-0.591,5.759,3.615,10.923,9.375,11.516
	c5.758,0.588,10.924-3.614,11.516-9.376c0.142-1.385-0.002-2.736-0.369-3.996l19.317-28.421c0.097,0.014,0.187,0.037,0.283,0.046
	c5.759,0.59,10.924-3.614,11.515-9.375C103.565,21.946,99.358,16.781,93.602,16.192z M6.754,88.714
	c-1.919-0.197-3.32-1.919-3.124-3.84c0.196-1.92,1.918-3.321,3.838-3.126c1.918,0.198,3.32,1.92,3.125,3.839
	C10.396,87.511,8.672,88.911,6.754,88.714z M37.504,46.965c-1.92-0.198-3.322-1.918-3.125-3.838
	c0.196-1.922,1.917-3.323,3.839-3.127c1.92,0.197,3.321,1.92,3.125,3.839C41.146,45.76,39.423,47.16,37.504,46.965z M61.42,71.866
	c-1.918-0.197-3.319-1.918-3.123-3.839s1.918-3.32,3.84-3.125c1.919,0.197,3.32,1.918,3.123,3.841
	C65.063,70.661,63.343,72.066,61.42,71.866z M92.174,30.118c-1.922-0.197-3.323-1.918-3.127-3.839
	c0.198-1.919,1.918-3.322,3.84-3.124c1.918,0.197,3.319,1.918,3.125,3.838C95.815,28.914,94.092,30.316,92.174,30.118z"/>
</svg>
